<?xml version="1.0" encoding="UTF-8"?>
<svg id="Layer_1" xmlns="http://www.w3.org/2000/svg" version="1.1" viewBox="0 0 595.28 841.89">
  <!-- Generator: Adobe Illustrator 29.1.0, SVG Export Plug-In . SVG Version: 2.1.0 Build 142)  -->
  <defs>
    <style>
      .st0 {
        fill: #fff;
      }

      .st1 {
        display: none;
      }
    </style>
  </defs>
  <rect class="st1" x="-79.72" y="62.3" width="758.24" height="806.4"/>
  <g>
    <path class="st0" d="M35.26,356.07c1.39-2.78,3.16-5.75,6.6-3.92,1.92,4.2,1.48,8.68,3.34,12.93.21.48.17,1.71,1.17,1.2,2.1-1.08,1.34-11.1,1.52-13.51.42-5.7,1.1-11.47,1.8-17.13.91-.97,1.06.09,1.18.91.16,1.12.65,13.18,3.91,8.7.19-.26,1.51-5.92,1.51-6.3v-18.63c0-1.47,1.96-2.84,2.81.16,1.67,5.91.19,13.25,1.69,19.37l1.5.59c.3-1.72.85-4.35,1.66-5.84.38-.7-.02-1.01,1.34-.77-.24,5.87,5.4,8.82,4.29,14.94,3.41.17,6.1,5.21,6.54-.22.66-8.2-.02-16.25,1.21-24.34,4.6-1.01,2.43,6.3,3,9.3.28,1.46,1.98,2.37,2.34,4.87.62,4.33-.34,9.62.06,14.07,2.04.18,4.26-.2,5.29-2.22l1.35-20.88,1.46-2.73c1.26,1.05,1.06,2.83,1.84,4.15.63,1.06,2.21,1.77,2.54,2.87.5,1.66.25,12.23.73,12.79l1.68-1.02c1.65-6.04,1.83-12.09,2.53-18.2,1.82-1.32,2.55,5.58,2.4,6.6l3.67.35,2.02,11.68c.81,1.52,2.34-1.72,2.73-2.13,6.53-6.92,4.13-6.97,4.8-16.2.29-4.07.53-8.07.71-12.02.13-2.78.89-5.78.49-8.71h2.4v21.33c0,.64,1.73,1.15,2.4.9-.13-3.14,2.02-5.6,2.87-8.25,3.26-10.11,1.55-19.99,1.95-30.5,1.54-1.71,4.74-7.19,5.34-2.36,1.33,10.65,2.08,21.38,3.09,32.06,2.71-.16,3.98-.12,5.12,2.47l13.53-6.45c1.76-2.79-.28-17.06.57-21.51.19-1.01.73-1.52,1.5-2.11,1.23-.48.93,1.16,1.08,1.9,1.33,6.46.74,12.63,1.62,19.12l9.06-3.39c1.1-1.88.57-13.11,2.06-13.43,3.68,1.06,2.74,10.66,5.51,11.32l5.49-1.22.71-10.11h1.8s.97,8.45.97,8.45c1.27.35,10.31-2.08,12.38-2.61,1.64-.43,3.65-1.77,4.65-1.96.75-.14,1.14.93,2.25.54.82-.3,9.89-10.95,11.88-12.84,1.2-1.14,6.12-4.58,6.62-5.39.84-1.38-.03-14.41,2.41-14.4l3.62,9.61c7.16-4.06,14.52-10.94,23.12-10.53-1.44.94-2.94,1.69-4.34,2.71-3.12,2.26-3.76,1.19-7.22,3.03-.49.26-2.62,1.52-3.1,1.84-.93.62-.85,2.28-2.76,1.74l.61,1.19c-3.02-1.64-4.95,2.61-6.81,4.01-.77.58-2.78,1.25-3.85,1.87-.36.21-1.38.11-.45.74,10.08-.71,22.19-1.4,30.31-8.15,2.85-2.37,4.94-7.39,9.64-6.58-3.92,2.49-5.75,7.27-9.31,9.92-11.23,8.36-30.13,3.86-39.15,11.62-.86.74-6.98,7.16-7.44,7.88s-.74,1.22-.57,2.13c1.65-1.31,4.22-.7,5.74-2.37,1.04-1.14.57-2.11,1.03-2.87,1.81-3,22.21-6.56,27-8.03,6.71-2.06,14.77-4.65,21.65-7.31,3.88-1.5,7.6-2.81,12.15-2.88,1.24-.02,1.76-.34,1.52,1.22-.79,0-1.67-.02-2.4.29-3.85,1.61-5.94,2.88-9.76,4.06-4.44,1.37-8.89,2.35-13.4,3.44-1.64.4-1.72.62.04.64,11.5.12,25.75-5.25,36.94-7.83l-1.8-.63-.1-2.28c-4.78-.47-8.2-4.68-13.12-4.91-.24-.23.53-.93,1.03-1.07.95-.26,6.35-.68,7.69-.7,3.2-.06,9.54.2,12.63.55.9.1,1.86.12,2.08,1.22h-15.02c.79,1.92,3.37,1.01,5.03,1.28,2.64.43,5.42,1.3,7.95,1.67,2.66.38,6.86-.13,9.41.67,1.01.31,1.09,3.55,4.64,1.8l.73,2.89,12.49,3.71c-10.65-1.55-21.23-2.8-31.96-1.02-7.54,1.25-14.89,4.49-21.97,6.27-12.57,3.15-45.79,6.7-53.01,17.28-1.51,2.21-2.55,6-4.1,8.52-5.13,8.34-13.25,9.01-20.82,14.03-4.24,9.5-6.68,19.72-8.12,30.03,2.03.69,2.01-1.44,2.71-1.71,1.47-.58,7.86,5.09,8.53-.1l9.19-1.19c-.64,2.43-6.93,1.53-7.21,1.8,1.31,3.23-2.64,4.51-3.48,7.63-.25.94-.6,2.23.78,1.99,1.58-.28,4.98-4.78,7.18-6.05,5.19-2.99,15.07-5.38,21.06-5.97,1.63-.16,9.58-.68,10.65-.51,6.51,1.04,5.9,11.81.46,13.11.15-4.34,4.85-8.41-2.4-9.61,2.87,3.7-10.24,11.52-9.01,13.2,5.7,2.23,11.62,2.9,17.74,2.43,1.47-.11,6.58-.87,7.69-1.35.89-.38.78-1.47,1.44-1.68,2.97-.95,9-.72,12.41-1.28,23.23-3.76,39.34-15.23,63.18-13.77,1.36.08,7.47.72,7.47,1.53-1.49,1.95-3.84.38-5.7.31-16.78-.64-22.74,4.51-36.95,9.9-6.08,2.31-12.78,3.62-19.06,4.97-5.2,1.12-10.65,1.53-15.77,3.16l5.1,1.8c37.77,2.88,75.98,3.26,113.55-2.42,13.16-1.99,26.55-5.22,39.09-9.57,1.07-1.5-1.69-15.95-2.32-18.78-2.69-12-5.68-17.8-12.78-27.47-1.6-2.17-4.7-4.8-5.9-6.72-2.41-3.87-3.03-11.17-5.75-14.51-2.45-3-10.04-10.49-12.83-12.88-.6-.51-2.3-.48-2.8-1.71-.45-1.11.61-1.03,1.37-.76,2.46.88,11.55,10.54,13.99,13.08.74.77,1.32,3.43,2.08.94.2-.66.44-1.82.51-2.5.09-.86-.49-9.81,1.87-8.03l3.55,13.46c3.43,1.97,3.16-3.21,4.14-5.48.49-1.14,1.82-1.87,2.26-3.15.96-2.76,1.62-16.4,3.59-16.85l1.49.9v26.44c0,4.29,7.28,4.57,10.68,5.54,2.42.69,4.58,2.45,7.32,1.96.72-3.44.54-7.49,1.53-10.82.31-1.05.13-1.42,1.48-1.18,2.28,4.29.46,9.48,2.47,14.06l7.75,3.36c.29-1.1.55-2.12.64-3.28.83-11.53-.47-24.5.57-36.08.07-.82.32-1.58.56-2.34,2.04-1.41,2.72,1.31,2.99,3.01.76,4.83,1.47,11.29,1.85,16.17.62,8,.35,16.48.75,24.51-.17,2.1,7.07,5.19,7.07,3.12v-15.62c0-1.17,2.95-1,3.11.53l1.65,19.2,12.37,6.99c.87-.56.83-1.16.93-2.06.93-8.56-.02-19.12.57-28.27.16-2.55-1.12-9.07,2.14-9.33.77-.32,2.67,1.09,2.67,1.53v20.43c0,.34.88,1.34.61,2.1l2.28-1.62,1.33-22.41c.7.1,1.78-.23,2.31.09.77.47,1.68,7.77,2.22,9.49,1.04,3.31,3.3,5.66,4.61,8.6.55,1.23.36,2.75.91,3.9.78,1.63,2.48,1.55,3.49,2.52,2.01,1.94,1.39,5.89,1.48,8.44,1.6,2.08,1.14-4.56,1.21-5.1.71-5.53,1.63-3.17,3.63-5.38.76-.83,1.03-3.24,1.17-3.34,1.92-1.31,4.02,4.1,4.21,5.69.86,7.02-.76,15.54.1,22.73,2.93,1.75,4.17,7.01,7.32,3.94,4-3.91.9-20.26,3.33-26,1.92-2.63,3.51,4.54,3.65,5.96.39,3.83-.71,24.86.61,26.13l4.85-3.85c.1-2.93,2.19-7.31,3.86-2.76.98,2.66.48,7.77,1.8,9.62.89,1.25,2.36-1.91,3.62-.02l.37,5.64c6.62,4.26,3.95-6.55,5.93-10.43,2.97,1.28,4.66.85,7.81.6-.04,2.93-.56,5.85,2.11,7.81,1.43.27.72-.65.9-1.47.42-1.89.77-3.77.59-5.73.67-.11,1.13,0,1.5.6,1.25,2.01,1.29,10.62,2.24,13.38.76,2.2,3.01,1.82,2.91,6.15-.07,3.24-2.06,4.38-2.42,6.64-.91,5.68-.24,13.38-1.36,19.06-.14.73-.56,1.41-1.07,1.94l-1.2-.61v-13.82c0-.22-.77-.92-.61-1.5l-1.83.26c-1.46,2.98.03,16.71-3.41,17.67-1.16.33-3.06-.68-4.63.67-3.41-.69.39-21-3.12-22.17-.84-.28-1.69-.04-2.38.5-2.11,1.64-1.87,14.75-2.65,18.07l-3.59-.34c-6.09,11.07-3.08-1.41-5.11-4.48-3.05-1.69-4.86,1.72-5.12,4.52-.23,2.54.04,6.11-.03,8.99-.07,2.67,1.02,10.79-2.16,11.66l-1.71-.54c-2.09-7.99.03-16.51-1.51-24.62-1.91-.35-1.81,2.13-2.55,2.85-.51.49-1.64.48-2.24,1.05-1.98,1.89-.7,6.04-1.34,8.28-.26.93-2.33,2.81-2.98,4.23-2.23,4.88-1,17.34-1.71,23.53-.18,1.55-1.56,9.11-2.37,9.65-5.98,4.01-3.91-11.16-4.38-13.7-.22-1.18-.69-3.09-2.26-2.85l-1.31,8.6c-.83,1.57-2.78.55-3.78,2.23-1.34,2.27-.53,5.64-1.05,7.97-.28,1.27-1.65,2.42-2.03,3.98-.39,1.65-.04,3.32-.52,4.89-.82,2.66-5.77,4.55-6.34,1.47l-.13-36.52c-1.27-3.46-4.67,4.27-4.67,4.67v20.73c0,.15-2.23.81-2.69,1.21l-.82-1-.69-23.35-.89-.88c-3.9,3.23-14.08,5.49-14.74,11.09-.34,2.91,1.62,11.62-2.39,10.22l-.6-10.51c-10.81,1.11-7.81,8.28-8.38,15.95-.25,3.29-.98,6.92-1.22,10.19-.33,4.61,1.07,10.03-1.52,14.11-1.46.29-.85-1.17-.89-2.09-.14-3.41-.51-6.85-.63-10.19-.22-6.06.98-15.64.02-21.05-.1-.59-.31-1.32-.94-1.47-.72-.17-8.93,3.15-9.55,4.19l-2.13,15.6c-1.46.18-.95,0-1.26-.84-1.47-3.94.3-9.4-1.14-13.59-2.73,1.27-13.78,3.21-15.31,4.81-3.46,3.62-1.81,18.87-2.08,24.35-.12,2.43-1.08,4.9-.63,7.49-1.21-.23-.98-1.27-1.19-2.11-1.21-4.72-.84-10.93-2.44-15.59-1.21-3.52-4.89-7.1-4.79-11.74-5.53.89-4.44,7.42-5.57,11.54-.2.73-.73,2.78-1.63,2.88v-8.71c0-.46-1-1.76-.6-2.71l-2.14.57c-2.86,3.7-6.18,7.06-9.56,10.27-2.9,2.75-7.65,4.57-8.14,8.99-3.13-1.22-3.67.68-6.04,2.06-27.87,16.23-52.7,23.26-85.37,17.59-4.06-.71-13.76-2.74-17.17-4.42-.85-.42-1.03-1.2-1.35-1.99,22.84,6.39,45.93,7.95,69.1,2.1,17.83-4.5,44.3-19.24,55.57-33.95.46-.6,1.17-.76.89-1.8-6.82.58-13.46,2.53-20.21,3.52-40.69,5.96-81.49,5.85-122.47,1.87l-30.35-5.39c-.11,1,.57,1.99,1.2,2.7,6.94,7.81,20.56,18.17,29.83,23.04,4.15,2.19,10.46,3.28,12.83,7.29-.91.68-10.19-3.85-11.82-4.7-7.29-3.79-15.74-9.77-21.95-15.16-3.06-2.66-11.66-12.64-14.15-13.63-2.74-1.08-14.24-3.75-17.43-4.25-1.43-.23-2.62.49-3.37.35s-5.14-3.82-7.24-3.44c-1.05.22-.96,3.13-1.61,4.41-.75,1.47-3.63,3.06-4.01,4.4-.53,1.84-.4,6.01-.73,8.29-.15,1.05.31,1.01-1.18.9l-1.14-20.19-9.07-2.64c-1.09,1.69-.46,8.73-3.31,7.81-1.7-.55-.76-8.59-2.73-9.89l-18.34-9.3c-1.27-.24-.69.17-.88.84-1.72,5.88-1.02,12.47-1.88,18.56-.62,1.15-2.29,1.94-3.5,1.33-2.61-1.32-.03-13.94-3.29-16.57s-5.94.36-6.32.02c-1.57-4.9.51-11.75-1.36-16.36-.91-2.25-4.01-3.63-5.49-5.33-.71-.81-2.49-6.17-3.39-3.27-.95,3.08,0,6.61-1.04,9.19-.39.96-5.7,6.33-6.44,6.16-1.91-.44-1.87-11.64-2.1-14.14-.1-1.06.21-1.94-.92-2.67-3.21,3.31-.24,9.59-2.22,13.39l-4.68,2.82-1.82-31.84c-1.59.67-1.5,2.64-2.39,3.91-.8,1.15-2.28,1.73-2.85,3.16-1.41,3.48-1.31,11.62-2.12,15.9-.43,2.27-.85,5.63-2.55,7.07-2.35.49-1.4-7.63-1.5-9.3-.47-7.58,0-15.38-.57-22.86-.08-1.07.17-1.94-.93-2.66-1.59.05-2.23,9.76-2.84,11.56-.48,1.41-2.58,2.24-3.19,4.02-.74,2.17-2.38,14.86-3.28,15.65l-3-.61c1.52-2.78.57-4.39.58-6.88.02-3.91.29-8.23.05-12.07s-1.47-12.67-3.45-3.4c-.59,2.75-1.22,16.83-1.99,17.54-1.04.97-1-.32-1.25-.84-1.64-3.53.02-9.59-4.75-9.72-1.61.82-.65,4.19-3,3.95.7-4.8-.99-9.5-1.23-14.09s.76-11.14,0-15.03c-.2-1.01-.74-1.49-1.49-2.11-5.24,4.23-3.28,13.1-4.8,19.23l-4.74,1.74-2.18-4.15v-30.64ZM473,342.51c-22.44-21.27-56.24-31.41-85.66-38.7.98,4.25,5.66,6.12,7.45,9.67,1.36,2.7,3.03,9.84,5.8,11.62,1.92,1.24,10.07,2.98,13.18,4.25,10.12,4.11,27.95,13.4,17.31,26.33-14.09,17.13-77.25,24.68-99.32,26.22-45.07,3.16-109.68,1.35-152.27-14.14-20.2-7.35-37.77-21.22-9.77-35.55,6.84-3.5,14.32-5.04,20.88-8.56l11.09-18.95c-.06-.57-.99-.31-1.48-.28-13.39.68-47.48,14.5-59.81,21.3-81.03,44.71-23.92,93.02,36.2,112.22,76.12,24.32,196.99,23.81,269.03-13.07,33.25-17.02,62.89-48.69,27.37-82.37ZM179.46,332.04l-2.94.07c-.16,1.08-.6,2.16-.67,3.25-.13,2.15.31,8.63.64,10.77.17,1.09.63,2.01,1.47,2.74l1.49-5.11v-11.71ZM166.24,338.05c-.7-.81-5.58,3.68-5.78,5.1l.52,1.36c5.09,1.94,5.77-2.23,5.25-6.46ZM183.66,366.29l.5-2.56-2.89-4.05c-1.94,3.26-1.76,5.89,2.39,6.6ZM216.11,364.49c-3.44.1-7.78,5.92-3.3,7.8,2.1.88-.14-2.01-.21-2.25-.79-2.8,2.14-3.86,3.51-5.55Z"/>
    <path class="st0" d="M329.06,261.75c.91.84-.08,1.09-.9,1.2-3.46.46-12.02-2.34-16.31-2.92-14.48-1.95-27.91-.94-42.27,1.11v-1.8c19.82-3.77,40.12-3.4,59.48,2.41Z"/>
    <path class="st0" d="M365.11,281.57l-3.9-1.8-4.51-4.8c1.54-.19,9.3,5.82,8.41,6.6Z"/>
    <path class="st0" d="M348.11,269.73c.2.18.85,1.57.78,1.62-2.58-.1-6.54-1.24-6.61-4.19.31-.21,5.35,2.13,5.83,2.57Z"/>
    <path class="st0" d="M314.64,342.25l8.18,1.73,16.16,1.27.89,1.2-9.01.61.3,1.21c-.9,1.14-6.99.44-8.94.65-12.74,1.42-25.94,5.45-38.34,7.93-8.12,1.62-20.88,4.54-28.86,2.67-3.82-.9-6.2-5.15-9.76-5.86-1.24,1.59.78.89,1.53,1.61,1.41,1.36,2.88,3.45,4.77,4.71-3.37.35-6.9-4.03-9.01-6.61-.63-.77-.69-2.11-1.45-2.75-3.16-2.63-16.94-.48-21.37-.55l7.8,1.19-17.42,1.2,1.2-1.5-15.62,1.5,4.2-1.79c-3.77-.51-9.48-1.08-12.01-4.21,3.16.24,6.15,1.53,9.32,1.79,9.38.75,23.35-3.25,33.13-4.7,2.91-.43,6.29-.3,8.89-.72.71-.11,1.42-.37,1.53-1.17-2.59-.5-5.14.45-7.52.6-1.2.07-.94-.13-.89-1.2,7.93-1.75,16.3-2.36,24.16-4.38,4.73-1.22,9.24-3.3,14.27-4.36,16.74-3.52,41.37-2.69,56.96,3.28.99.38,6.42,1.44,6.74,1.86.05.39-.8,1.19-.9,1.19h-9.91l8.79,1.73,3.83.08-2.4.6.6,1.2h-19.83ZM290.01,342.25c2.26-.38,4.68-.36,6.84-.67.67-.1,2.8-.22,2.77-1.12l-9.54.68c-.25.25-.02.79-.07,1.12-5.47.91-9.61,2.54-14.89,4.08l-4.93-.18c2.13,1.68,7.18.72,9.76.16,3.5-.76,6.41-3.24,10.07-2.86.05-.39-.06-.83,0-1.2Z"/>
    <path class="st0" d="M245.55,318.82c-.26-1.53.23-1.08,1.2-1.47,3.34-1.34,6.9-1.09,10.12-1.96,1.07-.29,1.56.17,1.3-1.37-3.35.85-6.35-.16-9.91,0-7.56.35-16.34,3.28-24,3.01-3.67-.13-5.88-1.41-5.14-5.42,1.96-.26,1.15,1.93,2.76,2.94,2.11,1.34,10.8.37,13.75.05,11.4-1.23,20.41-3.98,30.78-8.27,7.33-3.03,14.55-8.32,23-7.94-1.21,2.31-4.79,1.93-6.58,2.72-1.7.75-6.55,3.53-7.86,4.76-2.81,2.65-4.4,7.99-6.88,9.94-.73.57-6.64,3-7.21,3h-15.32Z"/>
    <path class="st0" d="M290.31,325.43c.28.02.98.57,1.78.62,2.14.14,4.59-.29,6.64-.02.83.11,1.88.44.89,1.2-16.73-1.97-32.78-.37-48.35,6.02l3.3-2.1,13.21-4.52c.12-1.05-2.07-.66-2.69-.59-3.25.37-6.53,1.96-9.92,1.79,3.02-2.41,8.53-5.15,12.22-6.1,6.56-1.69,12.87.75,19.33,1.29,5.72.48,11.96.45,17.71.61.14,1.05-1.36.56-2.09.59-5.19.21-10.43-.17-15.62,0l-6.31,1.2c3.28.14,6.63-.19,9.91,0Z"/>
    <path class="st0" d="M261.17,365.08c-.23,1.21-1.27.99-2.11,1.2-3.85.98-17.92,2.2-20.92.5-.39-.22-.82-.32-.92-.84,1.65-5.34-.42-12.24-6.69-12.88.29-1.7,3.64-.81,4.78-.26,1.55.75,3.22,3.5,3.92,5.09,1.27,2.87.88,7.2,4.82,7.2h17.12Z"/>
    <path class="st0" d="M244.94,324.23l-3.18,3.42c-6.07,2.34-12.5,3.58-19.05,3.18l7.94-4.97c4.64-1.38,9.45-1.89,14.28-1.63Z"/>
    <path class="st0" d="M251.55,301.4c.4,1.41-1.26,1.67-2.28,2.21-4.87,2.6-8.15,3.28-13.66,3.22-1.97-.02-3.56-1.1-5.68-.03-1.84-2.04,6.37-4.44,7.65-4.66,1.61-.29,13.43-1.18,13.97-.74Z"/>
    <path class="st0" d="M267.77,295.39c-5.36,1.57-10.52.31-15.91.61-6.56.37-12.95,2.7-19.53,2.99l7.08-2.82c8.94-1.89,18.24-2.21,27.36-2.47l1,1.69Z"/>
    <path class="st0" d="M300.22,320.03l-5.11,1.19c-2,.55-20.09-1.16-20.11-2.7,2.44-2.39,5.73-.04,8.15.25,5.63.68,11.4,1.11,17.07,1.26Z"/>
    <path class="st0" d="M290,306.21l-10.6,5.61c-1.07,2.15-2.89,3.08-5.01,3.99.72-6.64,9.95-9.19,15.61-9.61Z"/>
    <path class="st0" d="M307.43,313.42c1.01.77-.07,1.09-.89,1.19-4.81.6-10.78.57-15.33-.9,5.38-1.71,10.71.11,16.22-.3Z"/>
    <path class="st0" d="M237.13,337.45c.29,1.8-.43.97-1.46,1.22-1.78.43-5.52,1.58-6.95.28l8.41-1.5Z"/>
  </g>
  <text/>
  <g id="Text">
    <path class="st0" d="M436.44,395.82c-.89-2.91-1.84-5.78-2.78-8.66.14-.31.28-.62.41-.93,3.36-1.42,6.72-2.85,10.13-4.15,3.52,10.66,7.16,21.28,10.79,31.91-3.4,1.15-6.81,2.31-10.21,3.45-.29-.14-.58-.29-.87-.42-1.25-3.37-2.52-6.74-3.68-10.13-6.5,2.81-11.58,6.16-18.53,2.59-.38-.2-1.52-2.17-1.59-2.4-1.32-4.28-2.31-8.14-3.52-12.27.17-.3.31-.63.47-.94,3.24-1.42,6.45-2.9,9.67-4.36.28.13.59.22.84.4,1.02,2.02.93,4.64,2.25,6.5,1.61,2.27,4.71.35,6.64-.57Z"/>
    <path class="st0" d="M185.38,405.16c2.03.61,5.05,1.91,6.4-.4,1.11-1.9.91-4.36,1.76-6.37.23-.2.53-.33.78-.49,3.19.84,6.38,1.65,9.58,2.44.17.27.32.55.5.82-1,3.97-1.75,7.84-2.84,11.86-.34,1.25-1.96,3.57-3.04,4.09-5.82,2.8-10.31.58-16.04-.87-.9,3.47-1.85,6.95-2.78,10.42-.28.16-.55.31-.83.46-3.45-.89-6.9-1.78-10.34-2.67,2.79-10.46,5.69-20.88,8.29-31.39,3.39.94,6.76,1.99,10.16,2.9.17.27.33.54.49.81-.69,2.8-1.42,5.58-2.09,8.4Z"/>
    <path class="st0" d="M253.64,410.55c0,2.18-5.07,3.85-5.96,4.46-1.72,1.19-1.49,2.43-2.52,3.33-6.14,5.39-11.55,6.98-19.47,5.5-1.51-.28-2.48-1.38-3.9-1.85-3.5-1.17-7.38.25-10.68-1.85-9.37-5.95-4.12-11.73,3.45-16.06,12.99,2.41,26.05,4.79,39.08,6.47Z"/>
    <path class="st0" d="M316.34,417.31c-4.24.1-8.49.14-12.72.28-.24.75.25,2.47,1.1,2.49,5.17.17,10.18-.17,15.3-.15.07,3.84.16,7.67.26,11.53-7.2-.14-14.22.58-21.49.12-3.23-.2-6.53-3.31-6.99-6.44-.65-4.45.11-8.5-.17-12.86.27-.2.48-.45.72-.67,7.73-.2,15.46-.35,23.19-.55,1.04,2.02.73,4.05.78,6.24Z"/>
    <path class="st0" d="M408.98,397.61c.55,2.1,1.09,4.2,1.62,6.29-4.19,1.52-8.42,2.82-12.7,4.06.33,1.04.83,2.5,2.21,2.17,5.07-1.19,9.94-3.12,14.83-4.94,1.06,3.98,2.08,7.94,2.98,11.99-7.15,1.9-13.98,5.22-21.38,6.05-4.3.48-7.28-2.92-8.74-6.61s-1.67-7.74-2.86-11.5c.2-.29.36-.56.55-.84,7.97-1.82,15.78-3.96,23.49-6.67Z"/>
    <path class="st0" d="M141.08,403.39c1.15-3.66,2.29-7.32,3.44-10.99,3.63,1.06,7.23,2.2,10.83,3.33-1.72-3.66-3.4-7.34-5.07-11.02,4.93,1.54,9.84,3.09,14.78,4.64,3.31,6.89,6.79,12.46.86,19.06-.79.88-4.11,1.47-5.4,1.09-6.6-1.95-12.93-4.11-19.44-6.11Z"/>
    <path class="st0" d="M354.51,408.56c.23,1.99.44,3.98.67,5.97-1.97.15-3.94.3-5.91.45.69,7.81.93,15.65,1.3,23.48-.21.23-.43.47-.64.7-3.54.25-7.07.48-10.61.7-.41-8.01-.69-16.02-1.36-24.01-1.05.08-2.11.17-3.16.26-.2-2-.39-4-.61-6,6.77-.59,13.55-1.09,20.34-1.55Z"/>
    <path class="st0" d="M273.38,411.59c-.05,2.7-.35,5.03.99,7.53.19.35,1.39,1.21,1.66,1.23,3.72.23,7.14.09,10.76.16.22.22.46.44.69.66-.03,3.62-.07,7.22-.16,10.85-6.33-.34-12.51.04-18.89-.74-3.25-.39-6.34-3.78-6.72-6.91-.55-4.43.35-8.34.16-12.67.28-.18.49-.41.74-.6,3.59.2,7.18.38,10.78.48Z"/>
    <path class="st0" d="M373.96,406.4c1.14,6.6,2.27,13.21,3.38,19.82-.19.26-.37.52-.56.78-3.44.52-6.89,1.04-10.33,1.56-.26-.19-.52-.38-.79-.58-1.12-6.66-2.24-13.31-3.38-19.96,3.89-.54,7.78-1.08,11.67-1.62Z"/>
    <path class="st0" d="M256.59,407.17c-.3.43-.6.87-.9,1.3-13.1-1.65-26.02-4.17-38.95-6.79l-.52-.78c.26-.17.51-.35.77-.52,13.16,2.69,26.24,5.39,39.61,6.79Z"/>
    <path class="st0" d="M217.97,398.77c.27-.25.54-.49.81-.74,12.89,2.43,25.77,4.69,38.81,6.12.03.45.06.9.09,1.36-13.36-1.62-26.53-4.09-39.72-6.73Z"/>
    <path class="st0" d="M411.57,392.65c-.1.53-.2,1.06-.31,1.59-8.59,3.25-17.33,5.71-26.26,7.82-.27-.17-.53-.34-.8-.5.17-.27.35-.54.52-.81,9.14-2.17,18.06-4.76,26.84-8.1Z"/>
    <path class="st0" d="M411.07,390.88c-8.73,3.38-17.58,6-26.7,8.1-.26-.17-.53-.35-.79-.52.17-.27.35-.54.52-.81,8.86-2.03,17.46-4.55,25.94-7.84.34.36.69.71,1.03,1.07Z"/>
    <path class="st0" d="M202.44,393.52c.86.26,2,1.22,3.05,1.13-.03.31-.14.59-.2.88-9.17-2.19-18.27-4.65-27.37-7.11.1-.42.21-.84.3-1.27,8.03,2.38,16.13,3.94,24.21,6.37Z"/>
    <path class="st0" d="M437.65,377.72c1.28-.48,3.29-.56,4.54-1.41.15.29.22.59.33.88-9.05,3.71-17.94,7.79-26.89,11.74-.28-.13-.55-.25-.83-.38.15-.32.31-.63.45-.95,7.54-3.25,14.63-6.97,22.39-9.88Z"/>
    <path class="st0" d="M257.62,405.95c.09.25-.58.77-.68.75-13.41-1.5-26.47-4.09-39.66-6.72.06-.29.11-.58.17-.87,13.34,2.68,26.68,5.17,40.17,6.84Z"/>
    <path class="st0" d="M203.04,396.88c6.29,1.65-.73.35,2.3,1.45-9.63-2.09-18.81-4.31-28.15-6.97.25-.43,0-.89.59-1.2,7.26,2.12,18.97,5.07,25.26,6.71Z"/>
    <path class="st0" d="M292.44,406.34c-.14-.29-.3-.58-.44-.87.4-.37.81-.46,1.35-.49,8.78-.58,17.56-.36,26.33-.24.12.23-.47.83-.57.83-8.95.28-17.77.5-26.67.78Z"/>
    <path class="st0" d="M443.13,378.96c-.11.38-.22.76-.34,1.14-8.59,3.62-16.79,8.06-25.4,11.61-.52.21-.91.3-1.43.1.06-.36.12-.73.19-1.09,8.99-3.93,17.91-8.03,26.99-11.76Z"/>
    <path class="st0" d="M263,404.57c8.02.41,16.03.58,24.07.54.22.22.44.44.65.65-.23.22-.46.44-.69.66-8.05.03-16.08-.14-24.12-.55-.21-.23-.43-.46-.64-.69.24-.21.49-.41.73-.62Z"/>
    <path class="st0" d="M317.49,407.46c6.33.03-.58.52,2.55.83-8.94.16-17.51,1.1-26.29,1.11-1.06,0-2.02-.04-1.76-1.29,7.38-.2,19.17-.69,25.5-.65Z"/>
    <path class="st0" d="M257.3,400.54c-11.72-1.35-23.31-3.58-34.87-5.87-.07-.25.62-.72.72-.7,11.26,2.1,22.31,4.16,33.66,5.7.1.01.63.65.49.87Z"/>
    <path class="st0" d="M151.33,379.4c-5.23-1.72.58-.33-1.94-1.47,7.82,2.18,15.39,4.01,22.95,6.61.51.18.86.36,1.15.83-.37.24-.37.57-.95.67-6.13-1.89-15.98-4.91-21.21-6.63Z"/>
    <path class="st0" d="M335.56,404.72c-5.19.34.35-.5-2.29-.63,7.61-.88,14.87-1.94,22.41-2.27.54-.02.94.04,1.39.35-.23.35-.09.64-.55.94-6.06.39-15.77,1.26-20.96,1.61Z"/>
    <path class="st0" d="M256.12,399.1c-10.63-1.36-21.19-3.34-31.7-5.4-.07-.25.62-.72.73-.7,10.21,1.88,20.23,3.67,30.5,5.22.1.02.61.67.47.88Z"/>
    <path class="st0" d="M172.21,387.8c.05.33.11.65.16.98-.48.24-.94.22-1.44.08-7.44-2.09-14.57-5.12-21.95-7.38-.03-.26.72-.64.82-.61,7.55,2.26,14.88,4.76,22.41,6.93Z"/>
    <path class="st0" d="M357.67,404.86c0,1.2-.77,1.33-1.82,1.42-7.1.65-14.22.51-21.32,1.18-.25-.27-.5-.54-.76-.8,7.96-.75,15.9-1.51,23.89-1.79Z"/>
    <path class="st0" d="M442.68,377.63c.1.29.2.59.31.88-9.12,3.7-17.98,7.79-27.04,11.73-.1.04-.85-.31-.81-.57,9.14-4.08,18.27-8.23,27.54-12.04Z"/>
    <path class="st0" d="M441.62,374.54c.1.29.2.59.3.88-9.1,3.72-18.04,7.79-27,11.83-.09-.3-.18-.59-.27-.89,8.95-4.05,17.89-8.09,26.97-11.82Z"/>
    <path class="st0" d="M205.96,392.93c-.07.29-.15.58-.22.87-9.17-2.21-18.3-4.6-27.4-7.06.07-.28.14-.56.2-.84,9.11,2.46,18.25,4.81,27.42,7.04Z"/>
    <path class="st0" d="M205.18,395.97c-.07.29-.15.58-.22.87-9.16-2.19-18.25-4.68-27.34-7.16.07-.28.14-.56.2-.84,9.1,2.47,18.19,4.94,27.36,7.13Z"/>
    <path class="st0" d="M441.16,373.23c.11.29.2.58.31.87-8.9,3.61-17.57,7.57-26.39,11.5-.1.04-.86-.3-.81-.57,8.88-4.08,17.83-8.11,26.9-11.8Z"/>
    <path class="st0" d="M206.27,391.64c.05.26-.67.7-.78.67-9.05-2.12-17.92-4.45-26.86-6.83.07-.28.14-.56.21-.84,9.11,2.46,18.28,4.74,27.42,7.01Z"/>
    <path class="st0" d="M319.73,406.06c0,.3.01.6.02.9-9.34.1-18.67.45-28.01.72,0-.29,0-.59.01-.88,9.33-.28,18.65-.64,27.98-.74Z"/>
    <path class="st0" d="M319.66,402.92c0,.3.01.6.02.9-9.3.1-18.6.5-27.89.78,0-.29,0-.59.01-.88,9.29-.28,18.57-.69,27.86-.79Z"/>
    <path class="st0" d="M411.2,391.32c.09.3.17.59.25.89-8.81,3.33-17.65,5.98-26.88,8.07-.11.02-.82-.44-.75-.7,9.33-2.15,18.43-4.81,27.38-8.26Z"/>
    <path class="st0" d="M246.79,401.32c-.05.29-.1.58-.15.88-9.17-1.57-18.34-3.2-27.44-5-.06-.25.64-.71.74-.69,9,1.65,17.87,3.31,26.85,4.81Z"/>
    <path class="st0" d="M410.33,388.21c.08.3.16.59.24.89-8.75,3.41-17.63,6.05-26.78,8.15-.06-.3-.12-.59-.18-.89,9.13-2.1,17.99-4.74,26.72-8.15Z"/>
    <path class="st0" d="M440.55,371.5c.1.29.2.58.3.86-8.8,3.47-17.41,7.44-26,11.35-.18-.21.22-1.04.32-1.09,8.41-4.01,16.71-7.84,25.38-11.12Z"/>
    <path class="st0" d="M319.61,401.59c.12.23-.47.83-.57.83-8.99.27-17.84.55-26.78.83,0-.3,0-.59.02-.88,9.11-.27,18.24-.71,27.34-.78Z"/>
    <path class="st0" d="M205.62,390.52c-8.87-2.13-17.75-4.37-26.57-6.73.07-.28.14-.56.2-.85,8.64,2.35,17.26,4.43,25.99,6.63.1.03.55.75.38.95Z"/>
    <path class="st0" d="M409.97,386.88c.09.29.16.59.25.88-8.54,3.29-17.14,5.86-26.1,7.97-.11.02-.81-.44-.75-.7,9.05-2.18,17.91-4.78,26.6-8.16Z"/>
    <path class="st0" d="M379.68,399.94c-5.84,1.02-11.69,1.94-17.58,2.63-.25-.2-.51-.41-.76-.61.18-.25.37-.5.56-.74,5.65-.64,11.24-1.52,16.84-2.5.31.41.63.82.95,1.22Z"/>
    <path class="st0" d="M319.59,400.67c-8.93.12-17.91.52-26.83.8-.1-.24.49-.84.6-.84,8.61-.39,17.01-.73,25.62-.78.11,0,.72.59.61.83Z"/>
    <path class="st0" d="M409.47,385.14c.08.29.17.58.25.87-8.4,3.22-16.97,5.74-25.68,7.92-.16-.21.3-.95.4-.98,8.54-2.27,16.83-4.64,25.03-7.81Z"/>
    <path class="st0" d="M440.1,370.22c.1.29.2.57.3.86-8.54,3.22-16.79,7.14-25.08,10.9-.18-.21.22-1.04.32-1.09,8.11-3.86,16.07-7.59,24.46-10.67Z"/>
    <path class="st0" d="M204.86,388.06c-.07.29-.14.57-.21.86-8.46-2.02-16.89-4.14-25.29-6.39.07-.28.14-.56.2-.84,8.4,2.25,16.84,4.34,25.3,6.37Z"/>
    <path class="st0" d="M287.61,409.04c-7.9.1-15.63-.15-23.63-.41-.82-.03-2.01.47-1.86-1.06,8.28.48,16.54.59,24.91.66.11,0,.69.58.58.81Z"/>
    <path class="st0" d="M245.96,400.72c-8.4-1.41-16.82-2.93-25.2-4.55.06-.29.11-.58.16-.87,8.19,1.61,16.33,3.01,24.58,4.52.1.02.6.69.45.91Z"/>
    <path class="st0" d="M319.55,398.46c0,.3.02.59.02.89-8.49.06-16.99.46-25.46.74-.11-.24.48-.84.59-.84,8.34-.41,16.55-.7,24.85-.79Z"/>
    <path class="st0" d="M409.09,383.85c.08.29.16.57.24.86-8.08,3.1-16.33,5.55-24.71,7.66-.16-.21.3-.95.4-.98,8.23-2.15,16.19-4.43,24.06-7.54Z"/>
    <path class="st0" d="M380.06,401.71c-.56,2.07-1.88,1.34-3.75,1.61-1.31.19-1.42.63-3.32.98-2.88.52-7.53,1.69-10.86,1.02,0-.31.18-.63.25-.94,5.91-.83,11.79-1.6,17.68-2.67Z"/>
    <path class="st0" d="M287.77,403.79c0,.29,0,.59-.01.88-8.47.04-16.93-.12-25.39-.58.03-.29.06-.58.09-.88,8.44.47,16.86.63,25.31.58Z"/>
    <path class="st0" d="M287.67,406.88c.1.24-.52.82-.63.82-8.38.12-16.61-.15-24.93-.54.03-.29.04-.58.06-.88,8.49.44,17,.61,25.49.6Z"/>
    <path class="st0" d="M173.82,383.59c-.09.29-.19.57-.28.86-7.89-2.42-15.74-4.95-23.65-7.31.09-.28.18-.56.27-.84,7.92,2.33,15.77,4.87,23.66,7.29Z"/>
    <path class="st0" d="M172.84,386.58c-.09.28-.19.57-.28.85-7.91-2.33-15.74-4.94-23.63-7.34.09-.28.18-.56.27-.85,7.9,2.39,15.73,4.97,23.64,7.33Z"/>
    <path class="st0" d="M287.77,402.48c.11.24-.49.82-.59.83-8.15.14-16.14-.08-24.23-.5.03-.29.06-.59.09-.88,8.24.47,16.49.61,24.73.56Z"/>
    <path class="st0" d="M174.24,382.31c-.09.29-.19.57-.28.86-7.75-2.37-15.47-4.85-23.23-7.16.09-.28.18-.56.27-.84,7.78,2.29,15.49,4.77,23.25,7.14Z"/>
    <path class="st0" d="M357.02,400.38c.04.3.09.59.13.89-7.92.69-15.85,1.24-23.77,1.94-.03-.29-.07-.57-.1-.86,7.91-.7,15.83-1.24,23.74-1.96Z"/>
    <path class="st0" d="M357.48,403.52c.04.3.09.6.13.89-7.98.33-15.92,1.07-23.88,1.81-.03-.29-.07-.57-.1-.86,7.94-.74,15.88-1.43,23.85-1.84Z"/>
    <path class="st0" d="M287.78,401.57c-8.05.11-16.14-.04-24.18-.51-.09-.24.55-.8.66-.8,7.72.35,15.23.48,22.95.5.11,0,.68.58.57.81Z"/>
    <path class="st0" d="M174.81,380.59c-.1.29-.19.57-.29.86-7.6-2.33-15.2-4.74-22.8-7.01-.03-.26.72-.65.82-.62,7.51,2.17,14.82,4.53,22.26,6.77Z"/>
    <path class="st0" d="M202.78,387.08c-7.71-1.86-15.44-3.77-23.12-5.81.07-.28.14-.56.2-.85,7.5,2.03,14.98,3.77,22.55,5.71.1.03.53.75.37.95Z"/>
    <path class="st0" d="M439.64,368.94c.1.29.2.57.3.86-7.7,2.77-15.06,6.3-22.48,9.69-.19-.2.2-1.03.3-1.07,7.25-3.45,14.42-6.66,21.88-9.47Z"/>
    <path class="st0" d="M356.82,399.05c.04.3.09.59.13.89-7.75.72-15.52,1.25-23.28,1.94-.03-.29-.07-.57-.1-.86,7.75-.69,15.51-1.23,23.25-1.96Z"/>
    <path class="st0" d="M319.5,397.14c.12.23-.47.83-.57.83-7.59.19-15.07.44-22.59.72-.11-.24.48-.84.58-.85,7.58-.38,15.05-.64,22.58-.7Z"/>
    <path class="st0" d="M408.73,382.62c.08.28.16.55.24.82-7.2,2.81-14.51,5.11-22,6.94-.16-.21.29-.93.39-.96,7.3-1.97,14.35-4.12,21.37-6.8Z"/>
    <path class="st0" d="M356.67,398.15c-7.55.74-15.18,1.29-22.74,1.94-.13-.22.39-.85.49-.86,7.24-.72,14.29-1.25,21.55-1.85.11,0,.78.52.7.77Z"/>
    <path class="st0" d="M175.23,379.3c-.09.29-.19.57-.28.86-7.18-2.19-14.35-4.44-21.54-6.6.09-.28.18-.56.26-.83,7.2,2.14,14.37,4.38,21.56,6.58Z"/>
    <path class="st0" d="M287.39,399.39c0,.29,0,.59-.01.88-7.46.09-14.9,0-22.34-.45.02-.3.05-.59.07-.89,7.43.43,14.85.54,22.29.46Z"/>
    <path class="st0" d="M356.37,395.94c.04.3.09.59.13.89-7.13.68-14.27,1.22-21.4,1.86-.03-.29-.07-.57-.1-.86,7.12-.65,14.25-1.2,21.37-1.89Z"/>
    <path class="st0" d="M287.83,398.08c.1.24-.49.82-.59.83-6.69.15-13.25-.04-19.87-.31-.09-.25.54-.81.65-.8,6.67.17,13.22.35,19.82.29Z"/>
    <path class="st0" d="M175.65,378.02c-.1.29-.19.57-.29.86-6.46-1.98-12.93-3.96-19.38-5.94-.03-.26.72-.64.82-.61,6.37,1.82,12.55,3.8,18.84,5.69Z"/>
    <path class="st0" d="M356.18,394.61c.04.3.08.6.13.89-6.36.61-12.76,1.12-19.11,1.68-.13-.22.39-.84.49-.86,6.21-.66,12.33-1.06,18.5-1.71Z"/>
    <path class="st0" d="M379.77,400.39c.06.3.12.59.18.89-5.89,1.01-11.73,1.88-17.72,2.62-.11.01-.8-.53-.72-.78,6.09-.74,12.19-1.66,18.25-2.73Z"/>
    <path class="st0" d="M379.14,397.26c.06.3.12.6.17.9-5.89,1-11.78,1.95-17.71,2.64-.04-.3-.09-.59-.13-.89,5.93-.67,11.8-1.61,17.67-2.65Z"/>
    <path class="st0" d="M378.89,395.91c.06.3.11.6.17.9-5.68.99-11.28,1.91-17.06,2.55-.1.01-.78-.51-.71-.76,5.9-.66,11.76-1.61,17.61-2.68Z"/>
    <path class="st0" d="M378.57,394.12c.05.3.11.6.16.9-5.55.99-11.13,1.89-16.71,2.58-.15-.21.34-.88.45-.9,5.43-.86,10.74-1.6,16.11-2.58Z"/>
    <path class="st0" d="M378.33,392.79c.05.3.11.59.16.88-5.25.93-10.53,1.79-15.81,2.48-.15-.21.34-.88.45-.9,5.12-.84,10.14-1.54,15.2-2.46Z"/>
    <path class="st0" d="M378.08,391.47c.05.3.11.59.16.88-4.37.77-8.77,1.49-13.15,2.1-.15-.21.34-.89.44-.91,4.24-.72,8.36-1.3,12.54-2.07Z"/>
    <path class="st0" d="M240.44,395.32c-4.38-.74-8.79-1.57-13.15-2.43-.07-.25.62-.72.72-.71,4.07.7,7.92,1.45,11.98,2.23.1.02.6.69.45.91Z"/>
    <path class="st0" d="M258.42,402.9c-.03.29-.06.59-.09.88-3.46-.38-6.91-.81-10.35-1.36.05-.29.09-.58.14-.87,3.42.55,6.85.97,10.3,1.35Z"/>
    <path class="st0" d="M258.11,401.53c-.03.29-.06.59-.09.88-3.13-.34-6.26-.72-9.37-1.22.05-.29.1-.58.15-.87,3.1.49,6.2.86,9.32,1.21Z"/>
    <path class="st0" d="M245.78,396.23c1.14-.12,2.27-.24,3.4-.36.91.45,1.82.89,2.73,1.33-2.04-.32-4.09-.65-6.13-.97Z"/>
  </g>
</svg>