<?xml version="1.0" encoding="UTF-8"?>
<svg id="Layer_1" data-name="Layer 1" xmlns="http://www.w3.org/2000/svg" viewBox="0 0 420 420">
  <defs>
    <style>
      .cls-1 {
        fill: #fff;
      }
    </style>
  </defs>
  <path class="cls-1" d="M210,13.4C101.4,13.4,13.4,101.4,13.4,210s88,196.6,196.6,196.6,196.6-88,196.6-196.6S318.6,13.4,210,13.4ZM310,230v40.2h0c-.1,27.5-22.5,49.8-50,49.8h-5c-9.9,0-19.3-4.2-26-11.5-6.6-7.3-9.8-17.2-8.9-27,1.8-17.6,17.7-31.4,36.3-31.4h13.6c11,0,20-9,20-20v-98l-120,22.5v145.5c0,27.6-22.4,50-50,50h-5c-9.9,0-19.3-4.2-26-11.5-6.6-7.3-9.8-17.2-8.9-27,1.8-17.6,17.7-31.4,36.3-31.4h13.6c11,0,20-9,20-20V113.7c0-9.6,6.9-17.9,16.3-19.7l125.9-23.6c4.4-.8,8.9.3,12.3,3.2,3.5,2.9,5.4,7.1,5.4,11.5v145l.1-.1Z"/>
</svg>