<?xml version="1.0" encoding="UTF-8"?>
<svg id="Layer_1" xmlns="http://www.w3.org/2000/svg" version="1.1" viewBox="0 0 500 500">
  <!-- Generator: Adobe Illustrator 29.1.0, SVG Export Plug-In . SVG Version: 2.1.0 Build 142)  -->
  <defs>
    <style>
      .st0, .st1, .st2 {
        fill: #fff;
      }

      .st0, .st2, .st3 {
        stroke: #000;
        stroke-miterlimit: 10;
      }

      .st1, .st2, .st3 {
        display: none;
      }
    </style>
  </defs>
  <rect class="st3" x="-66" y="-52.1" width="723" height="681"/>
  <g>
    <path class="st1" d="M410,40H90c-27.6,0-50,22.4-50,50v320c0,27.6,22.4,50,50,50h320c27.6,0,50-22.4,50-50V90c0-27.6-22.4-50-50-50ZM250,455.4c-113.4,0-205.4-92-205.4-205.4S136.5,44.6,250,44.6s205.4,92,205.4,205.4-92,205.4-205.4,205.4Z"/>
    <path class="st2" d="M301,109.7h-40.2s-.4,195-.4,195.9c0,24-21.2,43-45.3,43s-43.5-19.5-43.5-43.5,19.5-43.5,43.5-43.5,3.5.3,5.3.5v-42c-1.8-.1-3.5-.3-5.3-.3-47.1,0-85.3,38.2-85.3,85.3s38.2,85.3,85.3,85.3,85.3-38.2,85.3-85.3v-115.4c13.4,20.4,36.5,33.9,62.7,33.9s4.6-.1,6.9-.4v-46.7c-36.2-2.6-65.2-30.9-69-66.9Z"/>
    <path class="st0" d="M250,44.6c-113.4,0-205.4,92-205.4,205.4s92,205.4,205.4,205.4,205.4-92,205.4-205.4S363.4,44.6,250,44.6ZM370.1,223.2c-2.3.2-4.6.4-6.9.4-26.2,0-49.3-13.5-62.7-33.9v115.4c0,47.1-38.2,85.3-85.3,85.3s-85.3-38.2-85.3-85.3,38.2-85.3,85.3-85.3,3.5.2,5.3.3v42c-1.8-.2-3.5-.5-5.3-.5-24,0-43.5,19.5-43.5,43.5s19.5,43.5,43.5,43.5,45.3-18.9,45.3-43,.4-195.9.4-195.9h40.2c3.8,35.9,32.8,64.2,69,66.9v46.7Z"/>
  </g>
</svg>